<svg width="800" height="400" viewBox="0 0 800 400" xmlns="http://www.w3.org/2000/svg"><mask id="satori_om-id"><rect x="0" y="0" width="800" height="400" fill="#fff"/></mask><rect x="0" y="0" width="800" height="400" fill="white"/><mask id="satori_om-id-0"><rect x="42" y="42" width="114" height="24" fill="#fff"/></mask><mask id="satori_om-id-0-0"><rect x="42" y="42" width="24" height="24" fill="#fff"/></mask><rect x="42" y="42" width="24" height="24" fill="black"/><mask id="satori_om-id-0-1"><rect x="74" y="42" width="82" height="24" fill="#fff"/></mask><path fill="black" d="M78.3 61.4L75.3 61.4L75.3 46.8L81.0 46.8Q82.7 46.8 83.8 47.5Q85.0 48.1 85.6 49.2Q86.2 50.3 86.2 51.8L86.2 51.8Q86.2 53.2 85.6 54.3Q85.0 55.4 83.8 56.0Q82.6 56.7 80.9 56.7L80.9 56.7L77.3 56.7L77.3 54.2L80.4 54.2Q81.3 54.2 81.9 53.9Q82.5 53.6 82.8 53.0Q83.0 52.5 83.0 51.8L83.0 51.8Q83.0 51.0 82.8 50.5Q82.5 49.9 81.9 49.6Q81.3 49.3 80.4 49.3L80.4 49.3L78.3 49.3L78.3 61.4ZM92.6 61.6L92.6 61.6Q90.9 61.6 89.7 60.9Q88.5 60.2 87.9 58.9Q87.2 57.6 87.2 56.0L87.2 56.0Q87.2 54.3 87.9 53.0Q88.5 51.7 89.7 51.0Q90.9 50.3 92.6 50.3L92.6 50.3Q94.2 50.3 95.4 51.0Q96.6 51.7 97.3 53.0Q98.0 54.3 98.0 56.0L98.0 56.0Q98.0 57.6 97.3 58.9Q96.6 60.2 95.4 60.9Q94.2 61.6 92.6 61.6ZM92.6 59.2L92.6 59.2Q93.4 59.2 93.9 58.8Q94.4 58.4 94.6 57.6Q94.9 56.9 94.9 55.9L94.9 55.9Q94.9 55.0 94.6 54.2Q94.4 53.5 93.9 53.1Q93.4 52.6 92.6 52.6L92.6 52.6Q91.8 52.6 91.3 53.1Q90.8 53.5 90.6 54.2Q90.3 55.0 90.3 55.9L90.3 55.9Q90.3 56.9 90.6 57.6Q90.8 58.4 91.3 58.8Q91.8 59.2 92.6 59.2ZM102.6 61.4L99.6 61.4L99.6 50.5L102.5 50.5L102.5 52.4L102.7 52.4Q103.0 51.4 103.7 50.8Q104.4 50.3 105.3 50.3L105.3 50.3Q105.5 50.3 105.8 50.3Q106.0 50.4 106.2 50.4L106.2 50.4L106.2 53.1Q106.0 53.0 105.6 53.0Q105.3 52.9 105.0 52.9L105.0 52.9Q104.3 52.9 103.8 53.2Q103.2 53.5 102.9 54.0Q102.6 54.5 102.6 55.2L102.6 55.2L102.6 61.4ZM107.2 50.5L113.8 50.5L113.8 52.7L107.2 52.7L107.2 50.5ZM108.7 58.4L108.7 47.9L111.8 47.9L111.8 58.0Q111.8 58.4 111.9 58.7Q112.0 58.9 112.2 59.0Q112.5 59.1 112.8 59.1L112.8 59.1Q113.0 59.1 113.2 59.0Q113.4 59.0 113.5 59.0L113.5 59.0L114.0 61.2Q113.8 61.3 113.4 61.4Q113.0 61.5 112.4 61.5L112.4 61.5Q111.3 61.6 110.5 61.2Q109.6 60.9 109.2 60.2Q108.7 59.5 108.7 58.4L108.7 58.4ZM114.6 50.5L121.3 50.5L121.3 52.7L114.6 52.7L114.6 50.5ZM119.2 61.4L116.1 61.4L116.1 49.7Q116.1 48.5 116.6 47.7Q117.1 46.9 117.9 46.5Q118.7 46.1 119.7 46.1L119.7 46.1Q120.4 46.1 121.0 46.3Q121.6 46.4 121.9 46.4L121.9 46.4L121.3 48.7Q121.1 48.7 120.9 48.6Q120.6 48.6 120.3 48.6L120.3 48.6Q119.7 48.6 119.4 48.9Q119.2 49.2 119.2 49.7L119.2 49.7L119.2 61.4ZM127.4 61.6L127.4 61.6Q125.7 61.6 124.5 60.9Q123.3 60.2 122.7 58.9Q122.0 57.6 122.0 56.0L122.0 56.0Q122.0 54.3 122.7 53.0Q123.3 51.7 124.5 51.0Q125.7 50.3 127.4 50.3L127.4 50.3Q129.1 50.3 130.3 51.0Q131.5 51.7 132.1 53.0Q132.8 54.3 132.8 56.0L132.8 56.0Q132.8 57.6 132.1 58.9Q131.5 60.2 130.3 60.9Q129.1 61.6 127.4 61.6ZM127.4 59.2L127.4 59.2Q128.2 59.2 128.7 58.8Q129.2 58.4 129.4 57.6Q129.7 56.9 129.7 55.9L129.7 55.9Q129.7 55.0 129.4 54.2Q129.2 53.5 128.7 53.1Q128.2 52.6 127.4 52.6L127.4 52.6Q126.7 52.6 126.1 53.1Q125.6 53.5 125.4 54.2Q125.1 55.0 125.1 55.9L125.1 55.9Q125.1 56.9 125.4 57.6Q125.6 58.4 126.1 58.8Q126.7 59.2 127.4 59.2ZM134.4 46.8L137.4 46.8L137.4 61.4L134.4 61.4L134.4 46.8ZM142.6 61.4L139.5 61.4L139.5 50.5L142.6 50.5L142.6 61.4ZM141.1 49.1L141.1 49.1Q140.4 49.1 139.9 48.6Q139.4 48.2 139.4 47.5L139.4 47.5Q139.4 46.9 139.9 46.4Q140.4 46.0 141.1 46.0L141.1 46.0Q141.7 46.0 142.2 46.4Q142.7 46.9 142.7 47.5L142.7 47.5Q142.7 48.2 142.2 48.6Q141.7 49.1 141.1 49.1ZM149.6 61.6L149.6 61.6Q147.9 61.6 146.7 60.9Q145.5 60.2 144.9 58.9Q144.2 57.6 144.2 56.0L144.2 56.0Q144.2 54.3 144.9 53.0Q145.5 51.7 146.7 51.0Q147.9 50.3 149.6 50.3L149.6 50.3Q151.2 50.3 152.5 51.0Q153.7 51.7 154.3 53.0Q155.0 54.3 155.0 56.0L155.0 56.0Q155.0 57.6 154.3 58.9Q153.7 60.2 152.5 60.9Q151.2 61.6 149.6 61.6ZM149.6 59.2L149.6 59.2Q150.4 59.2 150.9 58.8Q151.4 58.4 151.6 57.6Q151.9 56.9 151.9 55.9L151.9 55.9Q151.9 55.0 151.6 54.2Q151.4 53.5 150.9 53.1Q150.4 52.6 149.6 52.6L149.6 52.6Q148.8 52.6 148.3 53.1Q147.8 53.5 147.6 54.2Q147.3 55.0 147.3 55.9L147.3 55.9Q147.3 56.9 147.6 57.6Q147.8 58.4 148.3 58.8Q148.8 59.2 149.6 59.2Z "/><mask id="satori_om-id-1"><rect x="125" y="152" width="550" height="96" fill="#fff"/></mask><rect x="125" y="152" width="550" height="96" fill="black"/><path fill="white" d="M170.1 214.5L163.7 214.5L157.8 192.7L163.9 192.7L167.3 207.4L167.5 207.4L171.0 192.7L177.0 192.7L180.6 207.3L180.8 207.3L184.1 192.7L190.2 192.7L184.3 214.5L177.9 214.5L174.1 200.8L173.9 200.8L170.1 214.5ZM203.8 214.5L197.4 214.5L191.5 192.7L197.6 192.7L201.0 207.4L201.2 207.4L204.7 192.7L210.7 192.7L214.3 207.3L214.5 207.3L217.8 192.7L223.9 192.7L218.0 214.5L211.6 214.5L207.8 200.8L207.5 200.8L203.8 214.5ZM237.5 214.5L231.1 214.5L225.2 192.7L231.3 192.7L234.7 207.4L234.9 207.4L238.4 192.7L244.4 192.7L248.0 207.3L248.1 207.3L251.5 192.7L257.6 192.7L251.7 214.5L245.3 214.5L241.5 200.8L241.2 200.8L237.5 214.5ZM261.1 214.9L261.1 214.9Q259.6 214.9 258.6 213.9Q257.6 212.9 257.6 211.5L257.6 211.5Q257.6 210.1 258.6 209.1Q259.6 208.1 261.1 208.1L261.1 208.1Q262.4 208.1 263.4 209.1Q264.5 210.1 264.5 211.5L264.5 211.5Q264.5 212.4 264.0 213.2Q263.5 214.0 262.7 214.5Q262.0 214.9 261.1 214.9ZM275.2 214.5L269.1 214.5L269.1 192.7L274.9 192.7L274.9 196.6L275.1 196.6Q275.8 194.7 277.4 193.6Q279.0 192.4 281.2 192.4L281.2 192.4Q283.4 192.4 285.0 193.6Q286.6 194.7 287.1 196.6L287.1 196.6L287.4 196.6Q288.0 194.7 289.8 193.6Q291.5 192.4 293.9 192.4L293.9 192.4Q297.0 192.4 298.9 194.4Q300.8 196.3 300.8 199.9L300.8 199.9L300.8 214.5L294.8 214.5L294.8 201.1Q294.8 199.2 293.8 198.3Q292.8 197.4 291.4 197.4L291.4 197.4Q289.7 197.4 288.8 198.5Q287.9 199.5 287.9 201.2L287.9 201.2L287.9 214.5L282.0 214.5L282.0 200.9Q282.0 199.3 281.1 198.4Q280.2 197.4 278.7 197.4L278.7 197.4Q277.7 197.4 276.9 197.9Q276.1 198.4 275.6 199.3Q275.2 200.2 275.2 201.4L275.2 201.4L275.2 214.5ZM319.2 205.3L319.2 205.3L319.2 192.7L325.3 192.7L325.3 214.5L319.5 214.5L319.5 210.6L319.3 210.6Q318.5 212.5 316.8 213.7Q315.1 214.8 312.6 214.8L312.6 214.8Q310.5 214.8 308.8 213.8Q307.1 212.8 306.2 211.0Q305.3 209.2 305.3 206.6L305.3 206.6L305.3 192.7L311.3 192.7L311.3 205.5Q311.3 207.5 312.3 208.6Q313.4 209.7 315.1 209.7L315.1 209.7Q316.2 209.7 317.1 209.2Q318.1 208.7 318.7 207.7Q319.3 206.7 319.2 205.3ZM329.8 215.5L329.8 192.7L335.9 192.7L335.9 215.6Q335.9 218.2 334.9 219.7Q333.9 221.3 332.0 222.0Q330.2 222.7 327.6 222.7L327.6 222.7Q327.3 222.7 327.0 222.7Q326.7 222.7 326.4 222.7L326.4 222.7L326.4 218.0Q326.6 218.0 326.8 218.0Q327.0 218.0 327.2 218.0L327.2 218.0Q328.6 218.0 329.2 217.4Q329.8 216.8 329.8 215.5L329.8 215.5ZM332.8 189.9L332.8 189.9Q331.5 189.9 330.5 189.0Q329.6 188.1 329.6 186.8L329.6 186.8Q329.6 185.6 330.5 184.7Q331.5 183.8 332.8 183.8L332.8 183.8Q334.2 183.8 335.1 184.7Q336.1 185.6 336.1 186.8L336.1 186.8Q336.1 188.1 335.1 189.0Q334.2 189.9 332.8 189.9ZM338.8 192.7L352.0 192.7L352.0 197.3L338.8 197.3L338.8 192.7ZM341.8 208.6L341.8 187.5L347.9 187.5L347.9 207.8Q347.9 208.7 348.1 209.1Q348.4 209.6 348.8 209.8Q349.3 210.0 349.9 210.0L349.9 210.0Q350.3 210.0 350.8 209.9Q351.2 209.8 351.4 209.8L351.4 209.8L352.4 214.3Q351.9 214.4 351.1 214.6Q350.3 214.8 349.1 214.8L349.1 214.8Q346.9 214.9 345.3 214.3Q343.6 213.6 342.7 212.2Q341.8 210.8 341.8 208.6L341.8 208.6ZM361.8 215.0L361.8 215.0Q359.7 215.0 358.1 214.2Q356.5 213.5 355.5 212.1Q354.6 210.6 354.6 208.5L354.6 208.5Q354.6 206.6 355.2 205.4Q355.9 204.2 357.1 203.4Q358.2 202.7 359.7 202.3Q361.1 201.9 362.8 201.7L362.8 201.7Q364.7 201.5 365.8 201.4Q367.0 201.2 367.5 200.8Q368.0 200.5 368.0 199.8L368.0 199.8L368.0 199.7Q368.0 198.3 367.2 197.6Q366.4 196.9 364.8 196.9L364.8 196.9Q363.2 196.9 362.2 197.6Q361.2 198.3 360.9 199.4L360.9 199.4L355.3 198.9Q355.8 196.9 357.0 195.5Q358.3 194.0 360.2 193.2Q362.2 192.4 364.8 192.4L364.8 192.4Q366.7 192.4 368.3 192.9Q370.0 193.3 371.3 194.2Q372.6 195.1 373.3 196.5Q374.1 197.9 374.1 199.8L374.1 199.8L374.1 214.5L368.4 214.5L368.4 211.5L368.2 211.5Q367.7 212.5 366.8 213.3Q365.9 214.1 364.7 214.5Q363.4 215.0 361.8 215.0ZM363.5 210.8L363.5 210.8Q364.9 210.8 365.9 210.2Q366.9 209.7 367.5 208.8Q368.1 207.9 368.1 206.7L368.1 206.7L368.1 204.4Q367.8 204.6 367.3 204.8Q366.8 204.9 366.2 205.0Q365.6 205.2 365.0 205.2Q364.4 205.3 363.9 205.4L363.9 205.4Q362.8 205.6 362.0 205.9Q361.2 206.3 360.8 206.8Q360.3 207.4 360.3 208.3L360.3 208.3Q360.3 209.5 361.3 210.1Q362.2 210.8 363.5 210.8ZM384.6 214.5L378.6 214.5L378.6 185.5L384.6 185.5L384.6 196.4L384.8 196.4Q385.2 195.5 386.0 194.6Q386.7 193.7 388.0 193.1Q389.2 192.4 391.0 192.4L391.0 192.4Q393.4 192.4 395.4 193.7Q397.5 194.9 398.7 197.4Q399.9 199.9 399.9 203.7L399.9 203.7Q399.9 207.3 398.7 209.8Q397.5 212.3 395.5 213.6Q393.5 214.9 391.0 214.9L391.0 214.9Q389.3 214.9 388.0 214.3Q386.8 213.7 386.0 212.8Q385.2 212.0 384.8 211.1L384.8 211.1L384.6 211.1L384.6 214.5ZM384.5 203.6L384.5 203.6Q384.5 205.6 385.1 207.0Q385.6 208.5 386.6 209.3Q387.6 210.1 389.1 210.1L389.1 210.1Q390.6 210.1 391.6 209.3Q392.6 208.5 393.2 207.0Q393.7 205.5 393.7 203.6L393.7 203.6Q393.7 201.7 393.2 200.3Q392.6 198.9 391.6 198.1Q390.6 197.3 389.1 197.3L389.1 197.3Q387.6 197.3 386.6 198.0Q385.6 198.8 385.1 200.3Q384.5 201.7 384.5 203.6ZM409.8 215.0L409.8 215.0Q407.7 215.0 406.1 214.2Q404.4 213.5 403.5 212.1Q402.6 210.6 402.6 208.5L402.6 208.5Q402.6 206.6 403.2 205.4Q403.9 204.2 405.0 203.4Q406.2 202.7 407.7 202.3Q409.1 201.9 410.7 201.7L410.7 201.7Q412.6 201.5 413.8 201.4Q415.0 201.2 415.5 200.8Q416.0 200.5 416.0 199.8L416.0 199.8L416.0 199.7Q416.0 198.3 415.2 197.6Q414.3 196.9 412.8 196.9L412.8 196.9Q411.2 196.9 410.2 197.6Q409.2 198.3 408.9 199.4L408.9 199.4L403.3 198.9Q403.7 196.9 405.0 195.5Q406.2 194.0 408.2 193.2Q410.2 192.4 412.8 192.4L412.8 192.4Q414.6 192.4 416.3 192.9Q418.0 193.3 419.3 194.2Q420.6 195.1 421.3 196.5Q422.1 197.9 422.1 199.8L422.1 199.8L422.1 214.5L416.3 214.5L416.3 211.5L416.2 211.5Q415.6 212.5 414.8 213.3Q413.9 214.1 412.6 214.5Q411.4 215.0 409.8 215.0ZM411.5 210.8L411.5 210.8Q412.9 210.8 413.9 210.2Q414.9 209.7 415.5 208.8Q416.1 207.9 416.1 206.7L416.1 206.7L416.1 204.4Q415.8 204.6 415.3 204.8Q414.8 204.9 414.2 205.0Q413.6 205.2 413.0 205.2Q412.4 205.3 411.9 205.4L411.9 205.4Q410.8 205.6 410.0 205.9Q409.2 206.3 408.8 206.8Q408.3 207.4 408.3 208.3L408.3 208.3Q408.3 209.5 409.2 210.1Q410.1 210.8 411.5 210.8ZM436.3 215.0L436.3 215.0Q433.0 215.0 430.6 213.5Q428.2 212.1 426.9 209.6Q425.6 207.0 425.6 203.7L425.6 203.7Q425.6 200.4 426.9 197.8Q428.2 195.3 430.6 193.9Q433.0 192.4 436.3 192.4L436.3 192.4Q439.1 192.4 441.3 193.5Q443.4 194.5 444.7 196.4Q445.9 198.3 446.1 200.8L446.1 200.8L440.4 200.8Q440.1 199.2 439.1 198.2Q438.1 197.2 436.4 197.2L436.4 197.2Q435.0 197.2 433.9 197.9Q432.9 198.7 432.3 200.1Q431.7 201.6 431.7 203.6L431.7 203.6Q431.7 205.7 432.3 207.2Q432.9 208.7 433.9 209.4Q435.0 210.2 436.4 210.2L436.4 210.2Q437.4 210.2 438.3 209.8Q439.1 209.3 439.6 208.5Q440.2 207.7 440.4 206.5L440.4 206.5L446.1 206.5Q445.9 209.0 444.7 210.9Q443.5 212.8 441.4 213.9Q439.2 215.0 436.3 215.0ZM455.7 201.9L455.7 201.9L455.7 214.5L449.6 214.5L449.6 185.5L455.5 185.5L455.5 196.6L455.8 196.6Q456.5 194.6 458.2 193.5Q459.8 192.4 462.3 192.4L462.3 192.4Q464.6 192.4 466.3 193.4Q468.0 194.4 468.9 196.3Q469.9 198.1 469.8 200.7L469.8 200.7L469.8 214.5L463.8 214.5L463.8 201.7Q463.8 199.7 462.8 198.6Q461.7 197.5 459.9 197.5L459.9 197.5Q458.7 197.5 457.7 198.0Q456.8 198.5 456.2 199.5Q455.7 200.5 455.7 201.9ZM480.5 215.0L480.5 215.0Q478.4 215.0 476.8 214.2Q475.2 213.5 474.2 212.1Q473.3 210.6 473.3 208.5L473.3 208.5Q473.3 206.6 473.9 205.4Q474.6 204.2 475.8 203.4Q476.9 202.7 478.4 202.3Q479.8 201.9 481.5 201.7L481.5 201.7Q483.4 201.5 484.5 201.4Q485.7 201.2 486.2 200.8Q486.7 200.5 486.7 199.8L486.7 199.8L486.7 199.7Q486.7 198.3 485.9 197.6Q485.1 196.9 483.5 196.9L483.5 196.9Q481.9 196.9 480.9 197.6Q479.9 198.3 479.6 199.4L479.6 199.4L474.0 198.9Q474.5 196.9 475.7 195.5Q477.0 194.0 478.9 193.2Q480.9 192.4 483.5 192.4L483.5 192.4Q485.4 192.4 487.0 192.9Q488.7 193.3 490.0 194.2Q491.3 195.1 492.0 196.5Q492.8 197.9 492.8 199.8L492.8 199.8L492.8 214.5L487.1 214.5L487.1 211.5L486.9 211.5Q486.4 212.5 485.5 213.3Q484.6 214.1 483.4 214.5Q482.1 215.0 480.5 215.0ZM482.2 210.8L482.2 210.8Q483.6 210.8 484.6 210.2Q485.6 209.7 486.2 208.8Q486.8 207.9 486.8 206.7L486.8 206.7L486.8 204.4Q486.5 204.6 486.0 204.8Q485.5 204.9 484.9 205.0Q484.3 205.2 483.7 205.2Q483.1 205.3 482.6 205.4L482.6 205.4Q481.5 205.6 480.7 205.9Q479.9 206.3 479.5 206.8Q479.0 207.4 479.0 208.3L479.0 208.3Q479.0 209.5 479.9 210.1Q480.9 210.8 482.2 210.8ZM503.2 201.9L503.2 201.9L503.2 214.5L497.2 214.5L497.2 192.7L502.9 192.7L502.9 196.6L503.2 196.6Q503.9 194.7 505.6 193.6Q507.3 192.4 509.8 192.4L509.8 192.4Q512.0 192.4 513.7 193.4Q515.4 194.4 516.4 196.3Q517.3 198.1 517.3 200.7L517.3 200.7L517.3 214.5L511.2 214.5L511.2 201.7Q511.3 199.7 510.2 198.6Q509.2 197.5 507.4 197.5L507.4 197.5Q506.1 197.5 505.2 198.0Q504.3 198.5 503.8 199.5Q503.2 200.5 503.2 201.9ZM531.6 223.2L531.6 223.2Q528.6 223.2 526.5 222.4Q524.4 221.6 523.2 220.2Q522.0 218.8 521.6 217.1L521.6 217.1L527.2 216.3Q527.4 217.0 528.0 217.6Q528.5 218.1 529.5 218.5Q530.4 218.8 531.7 218.8L531.7 218.8Q533.7 218.8 535.0 217.9Q536.2 216.9 536.2 214.7L536.2 214.7L536.2 210.7L536.0 210.7Q535.6 211.6 534.8 212.4Q534.0 213.2 532.8 213.7Q531.5 214.2 529.8 214.2L529.8 214.2Q527.3 214.2 525.3 213.1Q523.3 211.9 522.1 209.6Q520.9 207.2 520.9 203.6L520.9 203.6Q520.9 199.9 522.1 197.4Q523.3 194.9 525.3 193.7Q527.4 192.4 529.8 192.4L529.8 192.4Q531.6 192.4 532.8 193.1Q534.1 193.7 534.8 194.6Q535.6 195.5 536.0 196.4L536.0 196.4L536.2 196.4L536.2 192.7L542.2 192.7L542.2 214.8Q542.2 217.5 540.9 219.4Q539.5 221.3 537.1 222.2Q534.7 223.2 531.6 223.2ZM531.7 209.7L531.7 209.7Q533.2 209.7 534.2 209.0Q535.2 208.2 535.7 206.9Q536.3 205.5 536.3 203.6L536.3 203.6Q536.3 201.6 535.7 200.2Q535.2 198.8 534.2 198.0Q533.2 197.3 531.7 197.3L531.7 197.3Q530.2 197.3 529.2 198.1Q528.2 198.9 527.6 200.3Q527.1 201.7 527.1 203.6L527.1 203.6Q527.1 205.5 527.6 206.8Q528.2 208.2 529.2 208.9Q530.2 209.7 531.7 209.7ZM550.3 214.9L550.3 214.9Q548.9 214.9 547.9 213.9Q546.9 212.9 546.9 211.5L546.9 211.5Q546.9 210.1 547.9 209.1Q548.9 208.1 550.3 208.1L550.3 208.1Q551.6 208.1 552.7 209.1Q553.7 210.1 553.7 211.5L553.7 211.5Q553.7 212.4 553.2 213.2Q552.7 214.0 552.0 214.5Q551.2 214.9 550.3 214.9ZM568.2 215.0L568.2 215.0Q564.8 215.0 562.4 213.5Q560.0 212.1 558.7 209.6Q557.4 207.0 557.4 203.7L557.4 203.7Q557.4 200.4 558.7 197.8Q560.0 195.3 562.4 193.9Q564.8 192.4 568.2 192.4L568.2 192.4Q571.0 192.4 573.2 193.5Q575.3 194.5 576.5 196.4Q577.8 198.3 577.9 200.8L577.9 200.8L572.2 200.8Q572.0 199.2 570.9 198.2Q569.9 197.2 568.3 197.2L568.3 197.2Q566.8 197.2 565.8 197.9Q564.8 198.7 564.2 200.1Q563.6 201.6 563.6 203.6L563.6 203.6Q563.6 205.7 564.2 207.2Q564.7 208.7 565.8 209.4Q566.8 210.2 568.3 210.2L568.3 210.2Q569.3 210.2 570.1 209.8Q570.9 209.3 571.5 208.5Q572.0 207.7 572.2 206.5L572.2 206.5L577.9 206.5Q577.8 209.0 576.6 210.9Q575.4 212.8 573.2 213.9Q571.1 215.0 568.2 215.0ZM591.4 215.0L591.4 215.0Q588.0 215.0 585.6 213.6Q583.2 212.1 581.9 209.6Q580.6 207.1 580.6 203.7L580.6 203.7Q580.6 200.3 581.9 197.8Q583.2 195.3 585.6 193.9Q588.0 192.4 591.4 192.4L591.4 192.4Q594.7 192.4 597.1 193.9Q599.5 195.3 600.8 197.8Q602.1 200.3 602.1 203.7L602.1 203.7Q602.1 207.1 600.8 209.6Q599.5 212.1 597.1 213.6Q594.7 215.0 591.4 215.0ZM591.4 210.3L591.4 210.3Q592.9 210.3 593.9 209.4Q594.9 208.6 595.4 207.1Q595.9 205.6 595.9 203.7L595.9 203.7Q595.9 201.8 595.4 200.3Q594.9 198.8 593.9 197.9Q592.9 197.1 591.4 197.1L591.4 197.1Q589.9 197.1 588.8 197.9Q587.8 198.8 587.3 200.3Q586.8 201.8 586.8 203.7L586.8 203.7Q586.8 205.6 587.3 207.1Q587.8 208.6 588.8 209.4Q589.9 210.3 591.4 210.3ZM611.8 214.5L605.7 214.5L605.7 192.7L611.5 192.7L611.5 196.6L611.7 196.6Q612.4 194.7 614.0 193.6Q615.6 192.4 617.8 192.4L617.8 192.4Q620.1 192.4 621.6 193.6Q623.2 194.7 623.7 196.6L623.7 196.6L624.0 196.6Q624.6 194.7 626.4 193.6Q628.2 192.4 630.6 192.4L630.6 192.4Q633.6 192.4 635.5 194.4Q637.4 196.3 637.4 199.9L637.4 199.9L637.4 214.5L631.4 214.5L631.4 201.1Q631.4 199.2 630.4 198.3Q629.5 197.4 628.0 197.4L628.0 197.4Q626.4 197.4 625.4 198.5Q624.5 199.5 624.5 201.2L624.5 201.2L624.5 214.5L618.6 214.5L618.6 200.9Q618.6 199.3 617.7 198.4Q616.8 197.4 615.3 197.4L615.3 197.4Q614.3 197.4 613.5 197.9Q612.7 198.4 612.2 199.3Q611.8 200.2 611.8 201.4L611.8 201.4L611.8 214.5Z "/></svg>